# xmcd CD database file
#
# Track frame offsets:
#	150
#	21583
#	45583
#	61633
#	84392
#	105766
#	131276
#	153931
#	174618
#	192088
#	211863
#	232361
#	257326
#	280018
#	305061
#	327378
#
# Disc length: 4662 seconds
#
# Revision: 3
# Processed by: cddbd v1.5.2PL0 Copyright (c) Steve Scherf et al.
# Submitted via: CDex 1.70beta2
#
DISCID=cf123410
DTITLE=オムニバス - いちばん大切なキミへ贈るうた 恋人へ
DYEAR=2009
DGENRE=J-Pop
TTITLE0=君想い - GReeeeN
TTITLE1=そばにいるね - Soulja × Yukie
TTITLE2=想い思い - キマグレン
TTITLE3=DIARY - 青山テルマ
TTITLE4=ナナ - かりゆし58
TTITLE5=願い feat. YU-A (Foxxi misQ) - 童子-T
TTITLE6=雲の上の君え(prologue) - 九州男
TTITLE7=時の中で - lecca
TTITLE8=キズナ - Hi-Fi CAMP
TTITLE9=Always you - Vijandeux
TTITLE10=BIRTH You're the only one Pt.2 feat.MAY'S - CLIFF EDGE
TTITLE11=君にもらう手紙 - NAO
TTITLE12=続→60億分の1 - C＆K
TTITLE13=LUV - MUNEHIRO
TTITLE14=DISTANCE - TWICE
TTITLE15=星の数 月の数 - MONGOL800
EXTD=YEAR: 2009
EXTT0=
EXTT1=
EXTT2=
EXTT3=
EXTT4=
EXTT5=
EXTT6=
EXTT7=
EXTT8=
EXTT9=
EXTT10=
EXTT11=
EXTT12=
EXTT13=
EXTT14=
EXTT15=
PLAYORDER=
